<svg width="800" height="600" viewBox="0 0 800 600" fill="none" xmlns="http://www.w3.org/2000/svg">
  <rect width="800" height="600" rx="12" fill="#161618" stroke="#333" stroke-width="2"/>
  
  <!-- Header -->
  <rect x="40" y="40" width="200" height="30" rx="6" fill="#333"/>
  <rect x="660" y="40" width="100" height="30" rx="6" fill="#4F46E5" fill-opacity="0.2"/>
  
  <!-- Stats Cards -->
  <rect x="40" y="100" width="220" height="120" rx="8" fill="#1F1F22"/>
  <rect x="60" y="120" width="40" height="40" rx="8" fill="#4F46E5" fill-opacity="0.2"/>
  <rect x="60" y="180" width="100" height="20" rx="4" fill="#333"/>
  
  <rect x="290" y="100" width="220" height="120" rx="8" fill="#1F1F22"/>
  <rect x="310" y="120" width="40" height="40" rx="8" fill="#A855F7" fill-opacity="0.2"/>
  <rect x="310" y="180" width="100" height="20" rx="4" fill="#333"/>
  
  <rect x="540" y="100" width="220" height="120" rx="8" fill="#1F1F22"/>
  <rect x="560" y="120" width="40" height="40" rx="8" fill="#22C55E" fill-opacity="0.2"/>
  <rect x="560" y="180" width="100" height="20" rx="4" fill="#333"/>
  
  <!-- Chart Area -->
  <rect x="40" y="260" width="720" height="300" rx="8" fill="#1F1F22"/>
  <path d="M80 500 L180 400 L280 450 L380 350 L480 380 L580 300 L680 340" stroke="#4F46E5" stroke-width="4" stroke-linecap="round" stroke-linejoin="round"/>
  <path d="M80 500 L180 400 L280 450 L380 350 L480 380 L580 300 L680 340 V520 H80 Z" fill="url(#gradient)" opacity="0.1"/>
  
  <defs>
    <linearGradient id="gradient" x1="0" y1="0" x2="0" y2="1">
      <stop offset="0%" stop-color="#4F46E5"/>
      <stop offset="100%" stop-color="#4F46E5" stop-opacity="0"/>
    </linearGradient>
  </defs>
</svg>